<mxfile host="65bd71144e">
    <diagram id="SwUlEUqGmNHeh5QPIGkG" name="Page-1">
        <mxGraphModel dx="693" dy="666" grid="1" gridSize="10" guides="1" tooltips="1" connect="1" arrows="1" fold="1" page="1" pageScale="1" pageWidth="850" pageHeight="1100" math="0" shadow="0">
            <root>
                <mxCell id="0"/>
                <mxCell id="1" parent="0"/>
                <mxCell id="2" value="&lt;font style=&quot;font-size: 19px;&quot;&gt;Sarary&lt;/font&gt;" style="ellipse;whiteSpace=wrap;html=1;strokeWidth=1;perimeterSpacing=0;" vertex="1" parent="1">
                    <mxGeometry x="290" y="80" width="120" height="80" as="geometry"/>
                </mxCell>
            </root>
        </mxGraphModel>
    </diagram>
</mxfile>